<?xml version="1.0" standalone="no"?>
<!DOCTYPE svg PUBLIC "-//W3C//DTD SVG 20010904//EN"
 "http://www.w3.org/TR/2001/REC-SVG-20010904/DTD/svg10.dtd">
<svg version="1.0" xmlns="http://www.w3.org/2000/svg"
 width="272.000000pt" height="272.000000pt" viewBox="0 0 272.000000 272.000000"
 preserveAspectRatio="xMidYMid meet">
<metadata>
Created by potrace 1.14, written by Peter Selinger 2001-2017
</metadata>
<g transform="translate(0.000000,272.000000) scale(0.100000,-0.100000)"
fill="#000000" stroke="none">
<path d="M1110 2345 c-88 -14 -264 -57 -313 -77 -15 -6 -32 -19 -38 -30 -13
-23 -25 -300 -15 -349 4 -26 17 -43 47 -65 22 -16 62 -46 89 -67 l50 -39 57
52 c71 63 175 115 268 133 l70 14 3 204 c3 198 2 205 -19 222 -25 20 -77 21
-199 2z"/>
<path d="M1418 2343 c-16 -17 -18 -43 -18 -224 l0 -204 78 -18 c86 -19 198
-81 264 -144 20 -20 43 -33 50 -31 21 9 175 125 184 140 12 20 16 120 9 246
-9 141 -17 153 -125 183 -110 31 -254 58 -345 65 -71 6 -82 4 -97 -13z"/>
<path d="M573 2161 c-162 -89 -373 -291 -373 -356 0 -23 27 -49 116 -108 47
-31 63 -33 107 -11 41 21 181 119 224 157 l33 29 0 147 c0 188 -7 197 -107
142z"/>
<path d="M2057 2172 c-14 -15 -17 -41 -17 -148 1 -82 5 -137 13 -151 24 -43
255 -203 293 -203 30 0 171 95 179 121 10 30 -34 95 -122 180 -88 85 -185 159
-255 195 -57 29 -70 30 -91 6z"/>
<path d="M1230 1801 c-87 -28 -134 -57 -205 -122 -36 -34 -65 -64 -65 -68 0
-4 82 -20 183 -35 100 -16 199 -33 221 -38 21 -5 42 -6 47 -1 4 4 -5 40 -21
78 -15 39 -40 99 -53 135 -14 36 -32 66 -39 67 -7 1 -38 -6 -68 -16z"/>
<path d="M1373 1803 c5 -16 61 -155 91 -228 7 -16 23 -59 36 -95 29 -82 35
-88 59 -66 28 25 161 202 161 214 0 16 -71 84 -125 120 -49 32 -162 72 -205
72 -17 0 -21 -4 -17 -17z"/>
<path d="M650 1742 c-76 -45 -194 -128 -212 -148 -21 -25 -34 -216 -23 -370 7
-106 8 -109 41 -140 55 -53 227 -164 253 -164 26 0 191 104 191 120 0 6 -12
29 -26 52 -43 68 -66 161 -67 268 -1 95 9 136 64 268 14 33 13 35 -16 59 -42
34 -127 83 -145 83 -8 0 -35 -13 -60 -28z"/>
<path d="M1921 1720 c-41 -27 -78 -50 -82 -50 -15 0 -10 -27 15 -82 65 -143
59 -340 -15 -478 l-32 -60 29 -22 c59 -47 160 -108 178 -108 23 0 86 36 181
104 119 85 112 72 120 207 4 65 4 169 0 231 -7 107 -9 114 -36 139 -54 50
-237 169 -261 169 -13 0 -56 -22 -97 -50z"/>
<path d="M137 1698 c-49 -27 -90 -187 -89 -353 0 -119 18 -223 52 -304 18 -41
27 -51 47 -51 32 0 75 23 146 77 l57 44 0 228 c0 167 -3 231 -12 243 -20 23
-133 107 -160 117 -15 5 -31 5 -41 -1z"/>
<path d="M2485 1659 c-114 -78 -105 -49 -105 -314 0 -264 -10 -235 104 -314
104 -72 129 -57 171 101 32 120 34 271 5 402 -39 175 -70 197 -175 125z"/>
<path d="M1732 1554 c-12 -8 -22 -20 -22 -25 0 -6 -52 -75 -116 -155 -74 -91
-114 -150 -110 -159 4 -11 21 -15 58 -15 29 0 82 -5 118 -12 109 -19 111 -18
127 27 22 60 22 227 -1 292 -21 63 -26 67 -54 47z"/>
<path d="M941 1550 c-38 -23 -53 -212 -26 -324 23 -99 26 -98 135 44 30 40 83
108 118 151 35 43 61 82 58 87 -3 5 -46 12 -95 16 -50 4 -110 13 -134 20 -25
7 -50 10 -56 6z"/>
<path d="M1127 1293 c-8 -15 -32 -48 -54 -73 -21 -25 -51 -62 -66 -83 l-28
-37 19 -28 c31 -42 62 -68 131 -106 62 -35 186 -75 197 -63 6 6 -6 45 -46 147
-12 30 -35 96 -52 145 -41 118 -42 119 -66 123 -15 2 -25 -5 -35 -25z"/>
<path d="M1292 1169 c7 -27 71 -190 91 -229 12 -22 19 -25 62 -22 69 3 145 44
228 123 71 66 72 67 47 77 -14 5 -102 21 -197 36 -94 14 -186 29 -204 33 -30
6 -32 4 -27 -18z"/>
<path d="M305 984 c-80 -48 -105 -72 -105 -103 0 -62 250 -297 387 -364 35
-17 47 -19 68 -9 l25 12 0 148 0 148 -27 26 c-38 34 -191 142 -230 162 -44 22
-50 21 -118 -20z"/>
<path d="M2292 995 c-76 -44 -200 -134 -226 -166 -25 -30 -26 -35 -26 -170 l0
-139 26 -12 c21 -10 33 -8 77 14 118 58 351 265 378 335 13 35 -8 65 -82 115
-75 50 -95 53 -147 23z"/>
<path d="M1706 943 c-27 -24 -75 -58 -107 -73 -51 -26 -80 -35 -172 -55 l-27
-5 2 -227 3 -226 25 -18 c24 -17 30 -17 155 1 203 30 350 73 383 112 16 20 26
341 12 368 -10 19 -135 116 -194 151 l-31 17 -49 -45z"/>
<path d="M848 907 c-68 -48 -91 -70 -99 -97 -12 -36 -7 -318 7 -353 9 -24 43
-40 149 -70 83 -23 133 -32 300 -56 66 -10 99 -2 114 28 14 26 15 437 1 446
-5 3 -33 10 -62 15 -84 13 -165 48 -234 101 -36 27 -70 49 -77 49 -7 0 -51
-29 -99 -63z"/>
</g>
</svg>
